<svg width="16" height="16" viewBox="0 0 16 16" fill="none" xmlns="http://www.w3.org/2000/svg">
<g id="message-square-outline" opacity="0.2">
<rect id="Rectangle" opacity="0.01" width="16" height="16" fill="black"/>
<path id="Oval" d="M8.00004 8.00002C8.36823 8.00002 8.66671 7.70154 8.66671 7.33335C8.66671 6.96516 8.36823 6.66669 8.00004 6.66669C7.63185 6.66669 7.33337 6.96516 7.33337 7.33335C7.33337 7.70154 7.63185 8.00002 8.00004 8.00002Z" fill="black"/>
<path id="Oval_2" d="M10.6667 8.00002C11.0349 8.00002 11.3333 7.70154 11.3333 7.33335C11.3333 6.96516 11.0349 6.66669 10.6667 6.66669C10.2985 6.66669 10 6.96516 10 7.33335C10 7.70154 10.2985 8.00002 10.6667 8.00002Z" fill="black"/>
<path id="Oval_3" d="M5.33329 8.00002C5.70148 8.00002 5.99996 7.70154 5.99996 7.33335C5.99996 6.96516 5.70148 6.66669 5.33329 6.66669C4.9651 6.66669 4.66663 6.96516 4.66663 7.33335C4.66663 7.70154 4.9651 8.00002 5.33329 8.00002Z" fill="black"/>
<path id="Shape" fill-rule="evenodd" clip-rule="evenodd" d="M3.33337 2H12.6667C13.7713 2 14.6667 2.89543 14.6667 4V10.6667C14.6667 11.7712 13.7713 12.6667 12.6667 12.6667H5.70004C5.57137 12.6617 5.44402 12.6941 5.33337 12.76L2.34004 14.5733C2.23714 14.6344 2.1197 14.6666 2.00004 14.6667C1.88552 14.6663 1.77301 14.6365 1.67337 14.58C1.46372 14.4621 1.33379 14.2405 1.33337 14V4C1.33337 2.89543 2.2288 2 3.33337 2ZM12.6667 11.3333C13.0349 11.3333 13.3334 11.0349 13.3334 10.6667V4C13.3334 3.63181 13.0349 3.33333 12.6667 3.33333H3.33337C2.96518 3.33333 2.66671 3.63181 2.66671 4V12.82L4.66671 11.62C4.97863 11.4322 5.33592 11.333 5.70004 11.3333H12.6667Z" fill="black"/>
</g>
</svg>
