<svg width="24" height="24" viewBox="0 0 24 24" fill="none" xmlns="http://www.w3.org/2000/svg">
<g id="Users">
<g id="Group 2">
<path id="Oval" fill-rule="evenodd" clip-rule="evenodd" d="M12 24C18.6274 24 24 18.6274 24 12C24 5.37258 18.6274 0 12 0C5.37258 0 0 5.37258 0 12C0 18.6274 5.37258 24 12 24Z" fill="black"/>
<path id="+" d="M12.5647 11.4353H16.2352C16.5471 11.4353 16.8 11.6881 16.8 12C16.8 12.3119 16.5471 12.5647 16.2352 12.5647H12.5647V16.2353C12.5647 16.5472 12.3118 16.8 12 16.8C11.6881 16.8 11.4352 16.5472 11.4352 16.2353V12.5647H7.76466C7.45278 12.5647 7.19995 12.3119 7.19995 12C7.19995 11.6881 7.45278 11.4353 7.76466 11.4353H11.4352V7.76472C11.4352 7.45284 11.6881 7.20001 12 7.20001C12.3118 7.20001 12.5647 7.45284 12.5647 7.76472V11.4353Z" fill="white"/>
</g>
</g>
</svg>
